<?xml version="1.0" encoding="utf-8" ?>
<svg xmlns="http://www.w3.org/2000/svg" xmlns:xlink="http://www.w3.org/1999/xlink" width="258" height="258">
	<ellipse cx="129" cy="129" rx="126.66666" ry="126.66666"/>
	<path fill="white" transform="matrix(1 0 -0 -1 115.667 47.3467)" d="M24.5333 17.0667C24.5333 21.3333 24.2667 25.6 22.4 29.5467C19.9467 34.6667 15.5733 35.52 13.3333 35.52C10.1333 35.52 6.24 34.1333 4.05333 29.1733C2.34667 25.4933 2.08 21.3333 2.08 17.0667C2.08 13.0667 2.29333 8.26667 4.48 4.21333C6.77333 -0.106667 10.6667 -1.17333 13.28 -1.17333C16.16 -1.17333 20.2133 -0.0533333 22.56 5.01333C24.2667 8.69333 24.5333 12.8533 24.5333 17.0667ZM20.1067 17.7067C20.1067 13.7067 20.1067 10.08 19.52 6.66667C18.72 1.6 15.68 0 13.28 0C11.2 0 8.05333 1.33333 7.09333 6.45333C6.50667 9.65333 6.50667 14.56 6.50667 17.7067C6.50667 21.12 6.50667 24.64 6.93333 27.52C7.94667 33.8667 11.9467 34.3467 13.28 34.3467C15.04 34.3467 18.56 33.3867 19.5733 28.1067C20.1067 25.12 20.1067 21.0667 20.1067 17.7067Z"/>
	<path fill="white" transform="matrix(0.809017 0.587785 0.587785 -0.809017 166.553 54.6293)" d="M22.3467 0L22.3467 1.65333L20.64 1.65333C15.84 1.65333 15.68 2.24 15.68 4.21333L15.68 34.1333C15.68 35.4133 15.68 35.52 14.4533 35.52C11.1467 32.1067 6.45333 32.1067 4.74667 32.1067L4.74667 30.4533C5.81333 30.4533 8.96 30.4533 11.7333 31.84L11.7333 4.21333C11.7333 2.29333 11.5733 1.65333 6.77333 1.65333L5.06667 1.65333L5.06667 0C6.93333 0.16 11.5733 0.16 13.7067 0.16C15.84 0.16 20.48 0.16 22.3467 0Z"/>
	<path fill="white" transform="matrix(0.309017 0.951057 0.951057 -0.309017 203.095 90.9057)" d="M23.9467 9.28L22.6133 9.28C22.3467 7.68 21.9733 5.33333 21.44 4.53333C21.0667 4.10667 17.5467 4.10667 16.3733 4.10667L6.77333 4.10667L12.4267 9.6C20.7467 16.96 23.9467 19.84 23.9467 25.1733C23.9467 31.2533 19.1467 35.52 12.64 35.52C6.61333 35.52 2.66667 30.6133 2.66667 25.8667C2.66667 22.88 5.33333 22.88 5.49333 22.88C6.4 22.88 8.26667 23.52 8.26667 25.7067C8.26667 27.0933 7.30667 28.48 5.44 28.48C5.01333 28.48 4.90667 28.48 4.74667 28.4267C5.97333 31.8933 8.85333 33.8667 11.9467 33.8667C16.8 33.8667 19.0933 29.5467 19.0933 25.1733C19.0933 20.9067 16.4267 16.6933 13.4933 13.3867L3.25333 1.97333C2.66667 1.38667 2.66667 1.28 2.66667 0L22.4533 0L23.9467 9.28Z"/>
	<path fill="white" transform="matrix(-0.309017 0.951057 0.951057 0.309017 210.777 141.552)" d="M24.3733 9.12C24.3733 13.4933 21.0133 17.6533 15.4667 18.7733C19.84 20.2133 22.9333 23.9467 22.9333 28.16C22.9333 32.5333 18.24 35.52 13.12 35.52C7.73333 35.52 3.68 32.32 3.68 28.2667C3.68 26.5067 4.85333 25.4933 6.4 25.4933C8.05333 25.4933 9.12 26.6667 9.12 28.2133C9.12 30.88 6.61333 30.88 5.81333 30.88C7.46667 33.4933 10.9867 34.1867 12.9067 34.1867C15.0933 34.1867 18.0267 33.0133 18.0267 28.2133C18.0267 27.5733 17.92 24.48 16.5333 22.1333C14.9333 19.5733 13.12 19.4133 11.7867 19.36C11.36 19.3067 10.08 19.2 9.70667 19.2C9.28 19.1467 8.90667 19.0933 8.90667 18.56C8.90667 17.9733 9.28 17.9733 10.1867 17.9733L12.5333 17.9733C16.9067 17.9733 18.88 14.3467 18.88 9.12C18.88 1.86667 15.2 0.32 12.8533 0.32C10.56 0.32 6.56 1.22667 4.69333 4.37333C6.56 4.10667 8.21333 5.28 8.21333 7.30667C8.21333 9.22667 6.77333 10.2933 5.22667 10.2933C3.94667 10.2933 2.24 9.54667 2.24 7.2C2.24 2.34667 7.2 -1.17333 13.0133 -1.17333C19.52 -1.17333 24.3733 3.68 24.3733 9.12Z"/>
	<path fill="white" transform="matrix(-0.809017 0.587785 0.587785 0.809017 187.954 187.459)" d="M25.12 8.8L25.12 10.4533L19.7867 10.4533L19.7867 34.72C19.7867 35.7867 19.7867 36.1067 18.9333 36.1067C18.4533 36.1067 18.2933 36.1067 17.8667 35.4667L1.49333 10.4533L1.49333 8.8L15.68 8.8L15.68 4.16C15.68 2.24 15.5733 1.65333 11.6267 1.65333L10.5067 1.65333L10.5067 0C12.6933 0.16 15.4667 0.16 17.7067 0.16C19.9467 0.16 22.7733 0.16 24.96 0L24.96 1.65333L23.84 1.65333C19.8933 1.65333 19.7867 2.24 19.7867 4.16L19.7867 8.8L25.12 8.8ZM16 10.4533L2.98667 10.4533L16 30.3467L16 10.4533Z"/>
	<path fill="white" transform="matrix(-1 5.96046e-08 5.96046e-08 1 142.333 210.653)" d="M23.9467 10.72C23.9467 17.0667 19.5733 22.4 13.8133 22.4C11.2533 22.4 8.96 21.5467 7.04 19.68L7.04 30.08C8.10667 29.76 9.86667 29.3867 11.5733 29.3867C18.1333 29.3867 21.8667 34.24 21.8667 34.9333C21.8667 35.2533 21.7067 35.52 21.3333 35.52C21.3333 35.52 21.1733 35.52 20.9067 35.36C19.84 34.88 17.2267 33.8133 13.6533 33.8133C11.52 33.8133 9.06667 34.1867 6.56 35.3067C6.13333 35.4667 5.92 35.4667 5.92 35.4667C5.38667 35.4667 5.38667 35.04 5.38667 34.1867L5.38667 18.4C5.38667 17.44 5.38667 17.0133 6.13333 17.0133C6.50667 17.0133 6.61333 17.1733 6.82667 17.4933C7.41333 18.3467 9.38667 21.2267 13.7067 21.2267C16.48 21.2267 17.8133 18.7733 18.24 17.8133C19.0933 15.84 19.2 13.76 19.2 11.0933C19.2 9.22667 19.2 6.02667 17.92 3.78667C16.64 1.70667 14.6667 0.32 12.2133 0.32C8.32 0.32 5.28 3.14667 4.37333 6.29333C4.53333 6.24 4.69333 6.18667 5.28 6.18667C7.04 6.18667 7.94667 7.52 7.94667 8.8C7.94667 10.08 7.04 11.4133 5.28 11.4133C4.53333 11.4133 2.66667 11.04 2.66667 8.58667C2.66667 4 6.34667 -1.17333 12.32 -1.17333C18.5067 -1.17333 23.9467 3.94667 23.9467 10.72Z"/>
	<path fill="white" transform="matrix(-0.809017 -0.587785 -0.587785 0.809017 91.7923 202.896)" d="M24.3733 10.88C24.3733 17.6533 19.6267 22.7733 13.7067 22.7733C10.08 22.7733 8.10667 20.0533 7.04 17.4933L7.04 18.7733C7.04 32.2667 13.6533 34.1867 16.3733 34.1867C17.6533 34.1867 19.8933 33.8667 21.0667 32.0533C20.2667 32.0533 18.1333 32.0533 18.1333 29.6533C18.1333 28 19.4133 27.2 20.5867 27.2C21.44 27.2 23.04 27.68 23.04 29.76C23.04 32.96 20.6933 35.52 16.2667 35.52C9.44 35.52 2.24 28.64 2.24 16.8533C2.24 2.61333 8.42667 -1.17333 13.3867 -1.17333C19.3067 -1.17333 24.3733 3.84 24.3733 10.88ZM19.5733 10.9333C19.5733 8.37333 19.5733 5.70667 18.6667 3.78667C17.0667 0.586667 14.6133 0.32 13.3867 0.32C10.0267 0.32 8.42667 3.52 8.10667 4.32C7.14667 6.82667 7.14667 11.0933 7.14667 12.0533C7.14667 16.2133 8.85333 21.5467 13.6533 21.5467C14.5067 21.5467 16.96 21.5467 18.6133 18.24C19.5733 16.2667 19.5733 13.5467 19.5733 10.9333Z"/>
	<path fill="white" transform="matrix(-0.309017 -0.951057 -0.951057 0.309017 55.7169 166.831)" d="M25.8667 34.3467L12.9067 34.3467C6.4 34.3467 6.29333 35.04 6.08 36.0533L4.74667 36.0533L2.98667 25.0667L4.32 25.0667C4.48 25.92 4.96 29.28 5.65333 29.92C6.02667 30.24 10.1867 30.24 10.88 30.24L21.92 30.24L15.9467 21.8133C11.1467 14.6133 9.38667 7.2 9.38667 1.76C9.38667 1.22667 9.38667 -1.17333 11.84 -1.17333C14.2933 -1.17333 14.2933 1.22667 14.2933 1.76L14.2933 4.48C14.2933 7.41333 14.4533 10.3467 14.88 13.2267C15.0933 14.4533 15.84 19.04 18.1867 22.3467L25.3867 32.48C25.8667 33.12 25.8667 33.2267 25.8667 34.3467Z"/>
	<path fill="white" transform="matrix(0.309017 -0.951057 -0.951057 -0.309017 47.2228 116.448)" d="M24.3733 8.96C24.3733 10.88 23.7867 13.28 21.76 15.52C20.7467 16.64 19.8933 17.1733 16.48 19.3067C20.32 21.28 22.9333 24.0533 22.9333 27.5733C22.9333 32.48 18.1867 35.52 13.3333 35.52C8 35.52 3.68 31.5733 3.68 26.6133C3.68 25.6533 3.78667 23.2533 6.02667 20.7467C6.61333 20.1067 8.58667 18.7733 9.92 17.8667C6.82667 16.32 2.24 13.3333 2.24 8.05333C2.24 2.4 7.68 -1.17333 13.28 -1.17333C19.3067 -1.17333 24.3733 3.25333 24.3733 8.96ZM20.5867 27.5733C20.5867 24.5333 18.5067 21.9733 15.3067 20.1067L8.69333 24.3733C6.24 25.9733 6.02667 27.7867 6.02667 28.6933C6.02667 31.9467 9.49333 34.1867 13.28 34.1867C17.1733 34.1867 20.5867 31.4133 20.5867 27.5733ZM21.7067 7.04C21.7067 3.09333 17.7067 0.32 13.3333 0.32C8.74667 0.32 4.90667 3.62667 4.90667 8.05333C4.90667 11.1467 6.61333 14.56 11.1467 17.0667L17.7067 12.9067C19.2 11.8933 21.7067 10.2933 21.7067 7.04Z"/>
	<path fill="white" transform="matrix(0.809017 -0.587785 -0.587785 -0.809017 70.2185 70.7782)" d="M24.3733 17.5467C24.3733 31.8933 18.24 35.52 13.4933 35.52C10.56 35.52 7.94667 34.56 5.65333 32.16C3.46667 29.76 2.24 27.52 2.24 23.52C2.24 16.8533 6.93333 11.6267 12.9067 11.6267C16.16 11.6267 18.3467 13.8667 19.5733 16.96L19.5733 15.2533C19.5733 2.77333 14.0267 0.32 10.9333 0.32C10.0267 0.32 7.14667 0.426667 5.70667 2.24C8.05333 2.24 8.48 3.78667 8.48 4.69333C8.48 6.34667 7.2 7.14667 6.02667 7.14667C5.17333 7.14667 3.57333 6.66667 3.57333 4.58667C3.57333 1.01333 6.45333 -1.17333 10.9867 -1.17333C17.8667 -1.17333 24.3733 6.08 24.3733 17.5467ZM19.4667 22.4533C19.4667 18.0267 17.6533 12.8533 12.96 12.8533C12.1067 12.8533 9.65333 12.8533 8 16.2133C7.04 18.1867 7.04 20.8533 7.04 23.4667C7.04 26.3467 7.04 28.8533 8.16 30.8267C9.6 33.4933 11.6267 34.1867 13.4933 34.1867C15.9467 34.1867 17.7067 32.3733 18.6133 29.9733C19.2533 28.2667 19.4667 24.9067 19.4667 22.4533Z"/>
	<ellipse fill="white" transform="matrix(1 -8.9407e-08 8.9407e-08 1 -3.05176e-05 -3.42429e-05)" cx="129" cy="129" rx="73.333344" ry="73.333344"/>
	<path transform="matrix(1 -8.9407e-08 -8.9407e-08 -1 88.72 108.582)" d="M40.5333 37.0667C40.5333 37.2267 40.4267 37.6 39.9467 37.6C39.7867 37.6 39.7333 37.5467 39.1467 36.96L35.4133 32.8533C34.9333 33.6 32.48 37.6 26.56 37.6C14.6667 37.6 2.66667 25.8133 2.66667 13.44C2.66667 4.64 8.96 -1.17333 17.12 -1.17333C21.76 -1.17333 25.8133 0.96 28.64 3.41333C33.6 7.78667 34.5067 12.64 34.5067 12.8C34.5067 13.3333 33.8667 13.3333 33.8667 13.3333C33.5467 13.3333 33.28 13.2267 33.1733 12.8C32.6933 11.2533 31.4667 7.46667 27.7867 4.37333C24.1067 1.38667 20.7467 0.48 17.9733 0.48C13.1733 0.48 7.52 3.25333 7.52 11.5733C7.52 14.6133 8.64 23.2533 13.9733 29.4933C17.2267 33.28 22.24 35.9467 26.9867 35.9467C32.4267 35.9467 35.5733 31.84 35.5733 25.6533C35.5733 23.52 35.4133 23.4667 35.4133 22.9333C35.4133 22.4 36 22.4 36.2133 22.4C36.9067 22.4 36.9067 22.5067 37.1733 23.4667L40.5333 37.0667Z"/>
	<path transform="matrix(1 -8.9407e-08 -8.9407e-08 -1 126.853 108.582)" d="M41.3867 8.16C41.3867 9.22667 40.3733 9.22667 39.5733 9.22667L28.32 9.22667L30.4533 17.44L39.5733 17.44C40.3733 17.44 41.3867 17.44 41.3867 18.5067C41.3867 19.5733 40.3733 19.5733 39.6267 19.5733L31.0933 19.5733L35.2533 34.9867C35.3067 35.0933 35.4667 35.7333 35.4667 35.9467C35.4667 36.5333 34.9867 37.0133 34.4 37.0133C33.5467 37.0133 33.3867 36.32 33.2267 35.7333L28.9067 19.5733L18.88 19.5733L23.04 34.9867C23.0933 35.0933 23.2533 35.7333 23.2533 35.9467C23.2533 36.5333 22.7733 37.0133 22.1867 37.0133C21.3333 37.0133 21.1733 36.32 21.0133 35.7333L16.6933 19.5733L4.74667 19.5733C4 19.5733 2.98667 19.5733 2.98667 18.5067C2.98667 17.44 4 17.44 4.8 17.44L16.0533 17.44L13.92 9.22667L4.8 9.22667C4 9.22667 2.98667 9.22667 2.98667 8.16C2.98667 7.09333 4 7.09333 4.74667 7.09333L13.28 7.09333L9.12 -8.32C9.06667 -8.42667 8.90667 -9.06667 8.90667 -9.28C8.90667 -9.86667 9.38667 -10.3467 9.97333 -10.3467C10.8267 -10.3467 10.9867 -9.65333 11.1467 -9.06667L15.4667 7.09333L25.4933 7.09333L21.3333 -8.32C21.28 -8.42667 21.12 -9.06667 21.12 -9.28C21.12 -9.86667 21.6 -10.3467 22.1867 -10.3467C23.04 -10.3467 23.2 -9.65333 23.36 -9.06667L27.68 7.09333L39.6267 7.09333C40.3733 7.09333 41.3867 7.09333 41.3867 8.16ZM28.2667 17.44L26.1333 9.22667L16.1067 9.22667L18.24 17.44L28.2667 17.44Z"/>
	<path transform="matrix(1 -8.9407e-08 -8.9407e-08 -1 65.04 168.582)" d="M55.68 35.84C55.68 36.4267 55.1467 36.4267 54.24 36.4267L47.2 36.4267C45.8133 36.4267 45.76 36.4267 45.12 35.4133L25.6533 5.01333L21.4933 35.2C21.3333 36.4267 21.2267 36.4267 19.84 36.4267L12.5333 36.4267C11.52 36.4267 10.9333 36.4267 10.9333 35.4133C10.9333 34.7733 11.4133 34.7733 12.48 34.7733C13.1733 34.7733 14.1333 34.72 14.7733 34.6667C15.6267 34.56 15.9467 34.4 15.9467 33.8133C15.9467 33.6 15.8933 33.44 15.7333 32.8L8.96 5.65333C8.42667 3.52 7.52 1.81333 3.2 1.65333C2.93333 1.65333 2.24 1.6 2.24 0.64C2.24 0.16 2.56 0 2.98667 0C4.69333 0 6.56 0.16 8.32 0.16C10.1333 0.16 12.0533 0 13.8133 0C14.08 0 14.7733 0 14.7733 1.06667C14.7733 1.65333 14.1867 1.65333 13.8133 1.65333C10.7733 1.70667 10.1867 2.77333 10.1867 4C10.1867 4.37333 10.24 4.64 10.4 5.22667L17.6533 34.2933L17.7067 34.2933L22.2933 1.22667C22.4 0.586667 22.4533 0 23.0933 0C23.68 0 24 0.586667 24.2667 0.96L45.8133 34.72L45.8667 34.72L38.24 4.16C37.7067 2.08 37.6 1.65333 33.3867 1.65333C32.48 1.65333 31.8933 1.65333 31.8933 0.64C31.8933 0 32.5333 0 32.6933 0L39.3067 0.16C41.4933 0.16 43.7867 0 45.9733 0C46.2933 0 46.9867 0 46.9867 1.06667C46.9867 1.65333 46.5067 1.65333 45.4933 1.65333C43.52 1.65333 42.0267 1.65333 42.0267 2.61333C42.0267 2.82667 42.0267 2.93333 42.2933 3.89333L49.3867 32.32C49.8667 34.24 49.9733 34.7733 53.9733 34.7733C55.2 34.7733 55.68 34.7733 55.68 35.84Z"/>
	<path transform="matrix(1 -8.9407e-08 -8.9407e-08 -1 116.773 168.582)" d="M26.56 7.62667C26.56 8.16 26.08 8.16 25.92 8.16C25.3867 8.16 25.3333 7.94667 25.1733 7.2C24.2667 3.73333 23.3067 0.586667 21.12 0.586667C19.68 0.586667 19.52 1.97333 19.52 3.04C19.52 4.21333 19.6267 4.64 20.2133 6.98667L21.3867 11.7867L23.3067 19.2533C23.68 20.7467 23.68 20.8533 23.68 21.0667C23.68 21.9733 23.04 22.5067 22.1333 22.5067C20.8533 22.5067 20.0533 21.3333 19.8933 20.16C18.9333 22.1333 17.3867 23.5733 14.9867 23.5733C8.74667 23.5733 2.13333 15.7333 2.13333 7.94667C2.13333 2.93333 5.06667 -0.586667 9.22667 -0.586667C10.2933 -0.586667 12.96 -0.373333 16.16 3.41333C16.5867 1.17333 18.4533 -0.586667 21.0133 -0.586667C22.88 -0.586667 24.1067 0.64 24.96 2.34667C25.8667 4.26667 26.56 7.62667 26.56 7.62667ZM19.2533 17.7067C19.2533 17.3867 19.1467 17.0667 19.0933 16.8L16.4267 6.34667C16.16 5.38667 16.16 5.28 15.36 4.37333C13.0133 1.44 10.8267 0.586667 9.33333 0.586667C6.66667 0.586667 5.92 3.52 5.92 5.6C5.92 8.26667 7.62667 14.8267 8.85333 17.28C10.5067 20.4267 12.9067 22.4 15.04 22.4C18.5067 22.4 19.2533 18.0267 19.2533 17.7067Z"/>
	<path transform="matrix(1 -8.9407e-08 -8.9407e-08 -1 144.987 168.582)" d="M17.6 22.4C17.6 22.9867 17.0667 22.9867 16.1067 22.9867L11.4133 22.9867C13.3333 30.56 13.6 31.6267 13.6 31.9467C13.6 32.8533 12.96 33.3867 12.0533 33.3867C11.8933 33.3867 10.4 33.3333 9.92 31.4667L7.84 22.9867L2.82667 22.9867C1.76 22.9867 1.22667 22.9867 1.22667 21.9733C1.22667 21.3333 1.65333 21.3333 2.72 21.3333L7.41333 21.3333C3.57333 6.18667 3.36 5.28 3.36 4.32C3.36 1.44 5.38667 -0.586667 8.26667 -0.586667C13.7067 -0.586667 16.7467 7.2 16.7467 7.62667C16.7467 8.16 16.32 8.16 16.1067 8.16C15.6267 8.16 15.5733 8 15.3067 7.41333C13.0133 1.86667 10.1867 0.586667 8.37333 0.586667C7.25333 0.586667 6.72 1.28 6.72 3.04C6.72 4.32 6.82667 4.69333 7.04 5.6L10.9867 21.3333L16 21.3333C17.0667 21.3333 17.6 21.3333 17.6 22.4Z"/>
	<path transform="matrix(1 -8.9407e-08 -8.9407e-08 -1 164.24 168.582)" d="M29.12 7.62667C29.12 8.16 28.64 8.16 28.48 8.16C27.9467 8.16 27.9467 8 27.68 7.2C26.88 4.37333 25.1733 0.586667 22.24 0.586667C21.3333 0.586667 20.96 1.12 20.96 2.34667C20.96 3.68 21.44 4.96 21.92 6.13333C22.7733 8.42667 25.1733 14.7733 25.1733 17.8667C25.1733 21.3333 23.04 23.5733 19.04 23.5733C15.68 23.5733 13.12 21.92 11.1467 19.4667L15.3067 36.4267C15.3067 36.4267 15.3067 37.0133 14.6133 37.0133C13.3867 37.0133 9.49333 36.5867 8.10667 36.48C7.68 36.4267 7.09333 36.3733 7.09333 35.4133C7.09333 34.7733 7.57333 34.7733 8.37333 34.7733C10.9333 34.7733 11.04 34.4 11.04 33.8667L10.88 32.8L3.14667 2.08C2.93333 1.33333 2.93333 1.22667 2.93333 0.906667C2.93333 -0.32 4 -0.586667 4.48 -0.586667C5.33333 -0.586667 6.18667 0.0533333 6.45333 0.8L7.46667 4.85333L8.64 9.65333C8.96 10.8267 9.28 12 9.54667 13.2267C9.65333 13.5467 10.08 15.3067 10.1333 15.6267C10.2933 16.1067 11.9467 19.0933 13.76 20.5333C14.9333 21.3867 16.5867 22.4 18.88 22.4C21.1733 22.4 21.76 20.5867 21.76 18.6667C21.76 15.7867 19.7333 9.97333 18.4533 6.72C18.0267 5.49333 17.76 4.85333 17.76 3.78667C17.76 1.28 19.6267 -0.586667 22.1333 -0.586667C27.1467 -0.586667 29.12 7.2 29.12 7.62667Z"/>
</svg>
