<?xml version="1.0" standalone="no"?>
<!DOCTYPE svg PUBLIC "-//W3C//DTD SVG 1.1//EN" "http://www.w3.org/Graphics/SVG/1.1/DTD/svg11.dtd" >
<svg xmlns="http://www.w3.org/2000/svg" xmlns:xlink="http://www.w3.org/1999/xlink" version="1.1" viewBox="-10 0 675 1000">
  <g transform="matrix(1 0 0 -1 0 806)">
   <path fill="currentColor"
d="M609 722q0 -21 -12.5 -32t-29.5 -11q-16 0 -28.5 11t-12.5 31q0 13 9 25.5t28 15.5q-24 21 -63 21q-26 0 -42 -13t-30 -60.5t-21 -135.5l-9 -123q66 -19 109 -75t43 -127q0 -82 -56 -142t-137 -67q-17 -136 -26 -169q-19 -77 -59 -127t-106 -50q-46 0 -78 23.5t-32 59.5
q0 21 12.5 32t29.5 11q16 0 28.5 -11t12.5 -31q0 -13 -9 -25.5t-28 -15.5q24 -21 64 -21q45 0 71 46t35 163l9 123q-66 19 -108.5 74.5t-42.5 126.5q0 83 55.5 143t136.5 67q19 142 26 173q39 173 151 173q46 0 78 -23.5t32 -59.5zM510 249q0 55 -32.5 99.5t-82.5 61.5
l-7 -85l-26 -244q63 8 105.5 56t42.5 112zM317 418q-63 -8 -105 -56t-42 -113q0 -55 32 -98.5t82 -61.5l7 85z" />
  </g>

</svg>
