<?xml version="1.0" standalone="no"?>
<!DOCTYPE svg PUBLIC "-//W3C//DTD SVG 1.1//EN" "http://www.w3.org/Graphics/SVG/1.1/DTD/svg11.dtd" >
<svg xmlns="http://www.w3.org/2000/svg" xmlns:xlink="http://www.w3.org/1999/xlink" version="1.1" viewBox="-10 0 692 1000">
  <g transform="matrix(1 0 0 -1 0 806)">
   <path fill="currentColor"
d="M643 407q5 -12 -5 -22q-40 -40 -37 -97q0 -15 -13 -20t-23 7q-35 45 -92 48q-12 0 -17 13q-7 19 11 26q3 1 9 1q34 -3 61 -16q-45 89 -139 115l-10 -137l-32 -295q72 5 126 51.5t71 115.5q4 15 20 15q8 0 14 -6t6 -14q0 -1 -0.5 -2.5t-0.5 -2.5q-20 -83 -87.5 -138.5
t-154.5 -58.5q-13 -94 -19 -119q-19 -77 -59 -127t-106 -50q-46 0 -78 23.5t-32 59.5q0 21 12.5 32t29.5 11q16 0 28.5 -11t12.5 -31q0 -13 -9 -25.5t-28 -15.5q24 -21 64 -21q45 0 71 46t35 163l5 72q-86 21 -141.5 91t-55.5 161q0 105 72.5 180.5t176.5 79.5q13 95 19 123
q39 173 151 173q46 0 78 -23.5t32 -59.5q0 -21 -12.5 -32t-29.5 -11q-16 0 -28.5 11t-12.5 31q0 13 9 25.5t28 15.5q-24 21 -63 21q-26 0 -42 -13t-30 -60.5t-21 -135.5l-5 -72q57 -14 102 -51t70 -90q14 30 36 53q2 2 7 4q19 7 26 -11zM324 469q-86 -6 -145 -69.5
t-59 -150.5q0 -75 45 -133.5t116 -78.5l10 137z" />
  </g>

</svg>
