<?xml version="1.0" standalone="no"?>
<!DOCTYPE svg PUBLIC "-//W3C//DTD SVG 1.1//EN" "http://www.w3.org/Graphics/SVG/1.1/DTD/svg11.dtd" >
<svg xmlns="http://www.w3.org/2000/svg" xmlns:xlink="http://www.w3.org/1999/xlink" version="1.1" viewBox="-10 0 1415 1000">
  <g transform="matrix(1 0 0 -1 0 806)">
   <path fill="currentColor"
d="M609 722q0 -21 -12.5 -32t-29.5 -11q-16 0 -28.5 11t-12.5 31q0 13 9 25.5t28 15.5q-24 21 -63 21q-26 0 -42 -13t-30 -60.5t-21 -135.5l-19 -249q-6 -85 -26.5 -250.5t-30.5 -203.5q-19 -77 -59 -127t-106 -50q-46 0 -78 23.5t-32 59.5q0 21 12.5 32t29.5 11
q16 0 28.5 -11t12.5 -31q0 -13 -9 -25.5t-28 -15.5q24 -21 64 -21q45 0 71 46t35 163l19 249q7 88 27.5 251.5t29.5 206.5q39 173 151 173q46 0 78 -23.5t32 -59.5zM979 722q0 -21 -12.5 -32t-29.5 -11q-16 0 -28.5 11t-12.5 31q0 13 9 25.5t28 15.5q-24 21 -63 21
q-26 0 -42 -13t-30 -60.5t-21 -135.5l-19 -249q-6 -85 -26.5 -250.5t-30.5 -203.5q-19 -77 -59 -127t-106 -50q-46 0 -78 23.5t-32 59.5q0 21 12.5 32t29.5 11q16 0 28.5 -11t12.5 -31q0 -13 -9 -25.5t-28 -15.5q24 -21 64 -21q45 0 71 46t35 163l19 249q7 88 27.5 251.5
t29.5 206.5q39 173 151 173q46 0 78 -23.5t32 -59.5zM1349 722q0 -21 -12.5 -32t-29.5 -11q-16 0 -28.5 11t-12.5 31q0 13 9 25.5t28 15.5q-24 21 -63 21q-26 0 -42 -13t-30 -60.5t-21 -135.5l-19 -249q-6 -85 -26.5 -250.5t-30.5 -203.5q-19 -77 -59 -127t-106 -50
q-46 0 -78 23.5t-32 59.5q0 21 12.5 32t29.5 11q16 0 28.5 -11t12.5 -31q0 -13 -9 -25.5t-28 -15.5q24 -21 64 -21q45 0 71 46t35 163l19 249q7 88 27.5 251.5t29.5 206.5q39 173 151 173q46 0 78 -23.5t32 -59.5z" />
  </g>

</svg>
