<?xml version="1.0" standalone="no"?>
<!DOCTYPE svg PUBLIC "-//W3C//DTD SVG 1.1//EN" "http://www.w3.org/Graphics/SVG/1.1/DTD/svg11.dtd" >
<svg xmlns="http://www.w3.org/2000/svg" xmlns:xlink="http://www.w3.org/1999/xlink" version="1.1" viewBox="-10 0 705 1000">
  <g transform="matrix(1 0 0 -1 0 806)">
   <path fill="currentColor"
d="M667 346q2 -13 -9 -19q-48 -33 -54 -89q-2 -15 -17 -17q-14 -3 -21 10q-27 51 -82 65q-12 4 -14 16q-4 19 16 23h8q33 -9 58 -27q-16 56 -57 97t-97 57l-10 -137q-6 -85 -26.5 -250.5t-30.5 -203.5q-19 -77 -59 -127t-106 -50q-46 0 -78 23.5t-32 59.5q0 21 12.5 32
t29.5 11q16 0 28.5 -11t12.5 -31q0 -13 -9 -25.5t-28 -15.5q24 -21 64 -21q45 0 71 46t35 163l19 249l33 295q-86 -6 -145 -69.5t-59 -150.5q0 -8 -6 -14t-14 -6q-9 0 -14.5 6t-5.5 14q0 105 72.5 180.5t176.5 79.5q13 95 19 123q39 173 151 173q46 0 78 -23.5t32 -59.5
q0 -21 -12.5 -32t-29.5 -11q-16 0 -28.5 11t-12.5 31q0 13 9 25.5t28 15.5q-24 21 -63 21q-26 0 -42 -13t-30 -60.5t-21 -135.5l-5 -72q69 -17 120 -67.5t69 -119.5q18 25 45 45q2 1 8 3q8 2 15 -3.5t8 -13.5z" />
  </g>

</svg>
