<?xml version="1.0" standalone="no"?>
<!DOCTYPE svg PUBLIC "-//W3C//DTD SVG 1.1//EN" "http://www.w3.org/Graphics/SVG/1.1/DTD/svg11.dtd" >
<svg xmlns="http://www.w3.org/2000/svg" xmlns:xlink="http://www.w3.org/1999/xlink" version="1.1" viewBox="-10 0 1045 1000">
  <g transform="matrix(1 0 0 -1 0 806)">
   <path fill="currentColor"
d="M979 722q0 -21 -12.5 -32t-29.5 -11q-16 0 -28.5 11t-12.5 31q0 13 9 25.5t28 15.5q-24 21 -63 21q-26 0 -42 -13t-30 -60.5t-21 -135.5l-12 -159q72 -30 113.5 -73.5t41.5 -92.5q0 -54 -51.5 -101.5t-137.5 -76.5q-22 -163 -30 -200q-19 -77 -59 -127t-106 -50
q-46 0 -78 23.5t-32 59.5q0 21 12.5 32t29.5 11q16 0 28.5 -11t12.5 -31q0 -13 -9 -25.5t-28 -15.5q24 -21 64 -21q45 0 71 46t35 163l10 126q-69 -12 -127 -12q-83 0 -166 20q-20 -156 -28 -188q-19 -77 -59 -127t-106 -50q-46 0 -78 23.5t-32 59.5q0 21 12.5 32t29.5 11
q16 0 28.5 -11t12.5 -31q0 -13 -9 -25.5t-28 -15.5q24 -21 64 -21q45 0 71 46t35 163l12 159q-71 30 -112.5 73.5t-41.5 91.5q0 55 51 102.5t137 76.5q22 167 30 204q39 173 151 173q46 0 78 -23.5t32 -59.5q0 -21 -12.5 -32t-29.5 -11q-16 0 -28.5 11t-12.5 31q0 13 9 25.5
t28 15.5q-24 21 -63 21q-26 0 -42 -13t-30 -60.5t-21 -135.5l-10 -126q63 11 128 11q86 0 165 -19q20 156 28 192q39 173 151 173q46 0 78 -23.5t32 -59.5zM880 249q0 79 -118 128l-4 -52l-22 -213q67 23 105.5 58.5t38.5 78.5zM313 387q-67 -23 -105 -59t-38 -79
q0 -78 117 -127l4 52zM685 402q-74 17 -160 17q-67 0 -131 -11l-6 -83l-24 -228q79 -18 161 -18q60 0 130 12l6 83z" />
  </g>

</svg>
