<?xml version="1.0" standalone="no"?>
<!DOCTYPE svg PUBLIC "-//W3C//DTD SVG 1.1//EN" "http://www.w3.org/Graphics/SVG/1.1/DTD/svg11.dtd" >
<svg xmlns="http://www.w3.org/2000/svg" xmlns:xlink="http://www.w3.org/1999/xlink" version="1.1" viewBox="-10 0 692 1000">
  <g transform="matrix(1 0 0 -1 0 806)">
   <path fill="currentColor"
d="M643 92q-7 -18 -26 -11q-5 1 -7 4q-22 23 -36 53q-30 -65 -90.5 -105t-133.5 -43q-13 -94 -19 -119q-19 -77 -59 -127t-106 -50q-46 0 -78 23.5t-32 59.5q0 21 12.5 32t29.5 11q16 0 28.5 -11t12.5 -31q0 -13 -9 -25.5t-28 -15.5q24 -21 64 -21q45 0 71 46t35 163l5 72
q-86 21 -141.5 91t-55.5 161q0 105 72.5 180.5t176.5 79.5q13 95 19 123q39 173 151 173q46 0 78 -23.5t32 -59.5q0 -21 -12.5 -32t-29.5 -11q-16 0 -28.5 11t-12.5 31q0 13 9 25.5t28 15.5q-24 21 -63 21q-26 0 -42 -13t-30 -60.5t-21 -135.5l-5 -72q70 -17 121.5 -68.5
t68.5 -121.5q0 -1 0.5 -2.5t0.5 -2.5q0 -8 -6 -14t-14 -6q-16 0 -20 15q-14 58 -55.5 101t-99.5 59l-10 -137l-32 -295q59 4 107 37t74 85q-27 -13 -61 -16q-6 0 -9 1q-18 7 -11 26q5 13 17 13q57 3 92 48q10 12 23 7t13 -20q-3 -57 37 -97q10 -10 5 -22zM324 469
q-86 -6 -145 -69.5t-59 -150.5q0 -75 45 -133.5t116 -78.5l10 137z" />
  </g>

</svg>
