<?xml version="1.0" standalone="no"?>
<!DOCTYPE svg PUBLIC "-//W3C//DTD SVG 1.1//EN" "http://www.w3.org/Graphics/SVG/1.1/DTD/svg11.dtd" >
<svg xmlns="http://www.w3.org/2000/svg" xmlns:xlink="http://www.w3.org/1999/xlink" version="1.1" viewBox="-10 0 1415 1000">
  <g transform="matrix(1 0 0 -1 0 806)">
   <path fill="currentColor"
d="M1349 722q0 -21 -12.5 -32t-29.5 -11q-16 0 -28.5 11t-12.5 31q0 13 9 25.5t28 15.5q-24 21 -63 21q-26 0 -42 -13t-30 -60.5t-21 -135.5l-13 -165q49 -16 82 -39q74 -48 74 -121q0 -72 -74 -120q-42 -29 -114 -49q-22 -177 -31 -209q-19 -77 -59 -127t-106 -50
q-46 0 -78 23.5t-32 59.5q0 21 12.5 32t29.5 11q16 0 28.5 -11t12.5 -31q0 -13 -9 -25.5t-28 -15.5q24 -21 64 -21q45 0 71 46t35 163l10 137h-2q-126 -22 -293 -22q-17 -135 -26 -169q-19 -77 -59 -127t-106 -50q-46 0 -78 23.5t-32 59.5q0 21 12.5 32t29.5 11
q16 0 28.5 -11t12.5 -31q0 -13 -9 -25.5t-28 -15.5q24 -21 64 -21q45 0 71 46t35 163l9 115q-150 3 -252 22l-38 7q-22 -164 -30 -198q-19 -77 -59 -127t-106 -50q-46 0 -78 23.5t-32 59.5q0 21 12.5 32t29.5 11q16 0 28.5 -11t12.5 -31q0 -13 -9 -25.5t-28 -15.5
q24 -21 64 -21q45 0 71 46t35 163l13 165q-49 16 -82 39q-73 48 -73 120q0 73 73 121q42 29 114 49q21 164 31 213q39 173 151 173q46 0 78 -23.5t32 -59.5q0 -21 -12.5 -32t-29.5 -11q-16 0 -28.5 11t-12.5 31q0 13 9 25.5t28 15.5q-24 21 -63 21q-26 0 -42 -13t-30 -60.5
t-21 -135.5l-10 -137h2q126 22 293 22q19 142 26 173q39 173 151 173q46 0 78 -23.5t32 -59.5q0 -21 -12.5 -32t-29.5 -11q-16 0 -28.5 11t-12.5 31q0 13 9 25.5t28 15.5q-24 21 -63 21q-26 0 -42 -13t-30 -60.5t-21 -135.5l-9 -115q150 -3 252 -22l39 -7q19 155 29 202
q39 173 151 173q46 0 78 -23.5t32 -59.5zM1250 249q0 51 -56 88q-29 19 -63 31l-3 -43l-21 -202q53 17 87 39q56 37 56 87zM312 376q-52 -16 -87 -39q-55 -37 -55 -88q0 -50 55 -87q29 -19 63 -31l3 43zM687 419q-157 0 -281 -21l-13 -2l-5 -71l-23 -216l41 -8
q103 -18 248 -21l7 94zM1054 390l-41 8q-103 18 -248 21l-7 -94l-26 -245q157 0 281 21l13 2l5 71z" />
  </g>

</svg>
